REM DIRINDEX 1\6,1\2\7,1\2\8,1\2\9,1\3\10,1\3\11,1\4\12,1\4\13,1\4\14,1\5\15,1\5\16,1\5\17
REM DIRNAME cjc040,folder01,folder02,folder03,folder04,folder05,folder06,folder07,folder08,folder09,folder10,folder11,folder12,folder13,folder14,folder15,folder16
TITLE ""
FILE "P2Q_t_0072-0089.mp3" MP3
  TRACK 01 AUDIO
    TITLE "10:cjc040_1792"
    INDEX 01 00:00:00
  TRACK 02 AUDIO
    TITLE "0:"
    INDEX 01 00:01:19
  TRACK 03 AUDIO
    TITLE "11:cjc040_1793"
    INDEX 01 00:01:73
  TRACK 04 AUDIO
    TITLE "0:"
    INDEX 01 00:03:37
  TRACK 05 AUDIO
    TITLE "10:cjc040_1794"
    INDEX 01 00:04:21
  TRACK 06 AUDIO
    TITLE "0:"
    INDEX 01 00:05:28
  TRACK 07 AUDIO
    TITLE "11:cjc040_1795"
    INDEX 01 00:06:08
  TRACK 08 AUDIO
    TITLE "0:"
    INDEX 01 00:07:49
  TRACK 09 AUDIO
    TITLE "10:cjc040_1796"
    INDEX 01 00:08:30
  TRACK 10 AUDIO
    TITLE "0:"
    INDEX 01 00:09:40
  TRACK 11 AUDIO
    TITLE "11:cjc040_1797"
    INDEX 01 00:10:18
  TRACK 12 AUDIO
    TITLE "0:"
    INDEX 01 00:11:64
  TRACK 13 AUDIO
    TITLE "10:cjc040_1798"
    INDEX 01 00:12:38
  TRACK 14 AUDIO
    TITLE "0:"
    INDEX 01 00:13:45
  TRACK 15 AUDIO
    TITLE "11:cjc040_1799"
    INDEX 01 00:14:35
  TRACK 16 AUDIO
    TITLE "0:"
    INDEX 01 00:15:58
  TRACK 17 AUDIO
    TITLE "10:cjc040_1800"
    INDEX 01 00:16:36
  TRACK 18 AUDIO
    TITLE "0:"
    INDEX 01 00:17:55
  TRACK 19 AUDIO
    TITLE "11:cjc040_1801"
    INDEX 01 00:18:37
  TRACK 20 AUDIO
    TITLE "0:"
    INDEX 01 00:19:48
  TRACK 21 AUDIO
    TITLE "10:cjc040_1802"
    INDEX 01 00:20:24
  TRACK 22 AUDIO
    TITLE "0:"
    INDEX 01 00:21:23
  TRACK 23 AUDIO
    TITLE "11:cjc040_1803"
    INDEX 01 00:22:03
  TRACK 24 AUDIO
    TITLE "0:"
    INDEX 01 00:24:74
  TRACK 25 AUDIO
    TITLE "10:cjc040_1804"
    INDEX 01 00:25:56
  TRACK 26 AUDIO
    TITLE "0:"
    INDEX 01 00:26:67
  TRACK 27 AUDIO
    TITLE "11:cjc040_1805"
    INDEX 01 00:27:51
  TRACK 28 AUDIO
    TITLE "0:"
    INDEX 01 00:29:19
  TRACK 29 AUDIO
    TITLE "10:cjc040_1806"
    INDEX 01 00:29:72
  TRACK 30 AUDIO
    TITLE "0:"
    INDEX 01 00:31:10
  TRACK 31 AUDIO
    TITLE "11:cjc040_1807"
    INDEX 01 00:31:67
  TRACK 32 AUDIO
    TITLE "0:"
    INDEX 01 00:36:13
  TRACK 33 AUDIO
    TITLE "10:cjc040_1808"
    INDEX 01 00:36:68
  TRACK 34 AUDIO
    TITLE "0:"
    INDEX 01 00:38:00
  TRACK 35 AUDIO
    TITLE "11:cjc040_1809"
    INDEX 01 00:38:53
  TRACK 36 AUDIO
    TITLE "0:"
    INDEX 01 00:42:51
  TRACK 37 AUDIO
    TITLE "10:cjc040_1810"
    INDEX 01 00:43:35
  TRACK 38 AUDIO
    TITLE "0:"
    INDEX 01 00:44:48
  TRACK 39 AUDIO
    TITLE "11:cjc040_1811"
    INDEX 01 00:45:30
  TRACK 40 AUDIO
    TITLE "0:"
    INDEX 01 00:46:60
  TRACK 41 AUDIO
    TITLE "10:cjc040_1812"
    INDEX 01 00:47:44
  TRACK 42 AUDIO
    TITLE "0:"
    INDEX 01 00:48:55
  TRACK 43 AUDIO
    TITLE "11:cjc040_1813"
    INDEX 01 00:49:31
  TRACK 44 AUDIO
    TITLE "0:"
    INDEX 01 00:52:39
  TRACK 45 AUDIO
    TITLE "10:cjc040_1814"
    INDEX 01 00:53:15
  TRACK 46 AUDIO
    TITLE "0:"
    INDEX 01 00:54:19
  TRACK 47 AUDIO
    TITLE "11:cjc040_1815"
    INDEX 01 00:55:04
  TRACK 48 AUDIO
    TITLE "0:"
    INDEX 01 00:58:07
  TRACK 49 AUDIO
    TITLE "10:cjc040_1816"
    INDEX 01 00:58:56
  TRACK 50 AUDIO
    TITLE "0:"
    INDEX 01 00:59:61
  TRACK 51 AUDIO
    TITLE "11:cjc040_1817"
    INDEX 01 01:00:43
  TRACK 52 AUDIO
    TITLE "0:"
    INDEX 01 01:01:70
  TRACK 53 AUDIO
    TITLE "10:cjc040_1818"
    INDEX 01 01:02:46
  TRACK 54 AUDIO
    TITLE "0:"
    INDEX 01 01:03:49
  TRACK 55 AUDIO
    TITLE "11:cjc040_1819"
    INDEX 01 01:04:29
  TRACK 56 AUDIO
    TITLE "0:"
    INDEX 01 01:07:23
  TRACK 57 AUDIO
    TITLE "10:cjc040_1820"
    INDEX 01 01:08:03
  TRACK 58 AUDIO
    TITLE "0:"
    INDEX 01 01:09:09
  TRACK 59 AUDIO
    TITLE "11:cjc040_1821"
    INDEX 01 01:09:59
  TRACK 60 AUDIO
    TITLE "0:"
    INDEX 01 01:14:72
  TRACK 61 AUDIO
    TITLE "10:cjc040_1822"
    INDEX 01 01:15:46
  TRACK 62 AUDIO
    TITLE "0:"
    INDEX 01 01:16:67
  TRACK 63 AUDIO
    TITLE "11:cjc040_1823"
    INDEX 01 01:17:53
  TRACK 64 AUDIO
    TITLE "0:"
    INDEX 01 01:20:61
  TRACK 65 AUDIO
    TITLE "10:cjc040_1824"
    INDEX 01 01:21:39
  TRACK 66 AUDIO
    TITLE "0:"
    INDEX 01 01:22:58
  TRACK 67 AUDIO
    TITLE "11:cjc040_1825"
    INDEX 01 01:23:40
  TRACK 68 AUDIO
    TITLE "0:"
    INDEX 01 01:26:30
  TRACK 69 AUDIO
    TITLE "10:cjc040_1826"
    INDEX 01 01:27:08
  TRACK 70 AUDIO
    TITLE "0:"
    INDEX 01 01:28:18
  TRACK 71 AUDIO
    TITLE "11:cjc040_1827"
    INDEX 01 01:29:03
  TRACK 72 AUDIO
    TITLE "0:"
    INDEX 01 01:30:13
